<mxfile host="app.diagrams.net" modified="2024-11-05T19:29:40.664Z" agent="Mozilla/5.0 (Macintosh; Intel Mac OS X 10_15_7) AppleWebKit/537.36 (KHTML, like Gecko) Chrome/130.0.0.0 Safari/537.36" version="24.4.14" etag="99m_-trPsI2thpmQMiBQ" type="github">
  <diagram name="Page-1" id="HuVt3ZoI5RabQS5PcvFJ">
    <mxGraphModel>
      <root>
        <mxCell id="0" />
        <mxCell id="1" parent="0" />
      </root>
    </mxGraphModel>
  </diagram>
</mxfile>
